<svg width="28" height="23" viewBox="0 0 28 23" fill="none" xmlns="http://www.w3.org/2000/svg">
<path d="M8.7955 22.7512C19.362 22.7512 25.1422 13.996 25.1422 6.41671C25.1446 6.17055 25.1411 5.92438 25.1318 5.67821C26.2567 4.86314 27.2279 3.85463 28 2.69971C26.9484 3.16219 25.8346 3.46762 24.6943 3.60621C25.8958 2.8882 26.7957 1.75823 27.2265 0.426463C26.0982 1.09622 24.8626 1.56573 23.5742 1.81421C22.7083 0.892004 21.5625 0.281069 20.3141 0.0760386C19.0658 -0.128992 17.7848 0.0833256 16.6693 0.680103C15.5539 1.27688 14.6664 2.22481 14.1443 3.37707C13.6222 4.52932 13.4946 5.8216 13.7812 7.05371C11.4969 6.93972 9.26213 6.34656 7.22195 5.31275C5.18177 4.27894 3.38183 2.8276 1.939 1.05296C1.20677 2.31846 0.983413 3.81514 1.31426 5.23928C1.64511 6.66343 2.50538 7.90836 3.7205 8.72146C2.80947 8.69203 1.91834 8.44736 1.12 8.00746V8.08621C1.12223 9.41163 1.58168 10.6957 2.42082 11.7216C3.25995 12.7476 4.42736 13.4526 5.726 13.7177C5.23297 13.8536 4.72366 13.9213 4.21225 13.919C3.85161 13.9227 3.49154 13.8893 3.13775 13.8192C3.50419 14.9607 4.21886 15.9589 5.18146 16.6735C6.14407 17.3882 7.30628 17.7835 8.505 17.804C6.46818 19.4017 3.95368 20.2688 1.365 20.2662C0.908772 20.2696 0.452806 20.2433 0 20.1875C2.62749 21.863 5.67922 22.7526 8.7955 22.7512Z" fill="black"/>
</svg>
